<?xml version="1.0" standalone="no"?><!DOCTYPE svg PUBLIC "-//W3C//DTD SVG 1.1//EN" "http://www.w3.org/Graphics/SVG/1.1/DTD/svg11.dtd"><svg t="1764842317470" class="icon" viewBox="0 0 1024 1024" version="1.1" xmlns="http://www.w3.org/2000/svg" p-id="8158" xmlns:xlink="http://www.w3.org/1999/xlink" width="256" height="256"><path d="M457.216 587.2 427.264 587.2 427.264 667.648 457.216 667.648 606.784 667.648 636.736 667.648 636.736 587.2 606.784 587.2Z" fill="#272636" p-id="8159"></path><path d="M512.96 550.08 512.96 469.568 457.216 469.568 303.488 469.568 303.488 550.08 457.216 550.08Z" fill="#272636" p-id="8160"></path><path d="M931.328 489.152c0.64-7.68 0.96-15.488 0.96-23.296 0-153.216-124.096-277.76-276.48-277.76-97.792 0-186.24 50.496-236.16 133.248C393.152 309.44 364.224 303.232 334.848 303.232c-99.328 0-183.744 70.336-203.456 166.336C53.184 488.768 0 560.448 0 650.112c0 105.92 75.008 185.728 174.464 185.728l664.704 0c101.952 0 184.832-83.328 184.832-185.728C1024 583.488 988.096 522.176 931.328 489.152zM865.728 457.216c0 6.848-5.568 12.352-12.352 12.352l-55.68 0 0 80.448 55.68 0c6.848 0 12.352 5.568 12.352 12.352l0 12.352c0 6.848-5.568 12.352-12.352 12.352l-179.456 0 0 80.448 179.456 0c6.848 0 12.352 5.504 12.352 12.352l0 12.352c0 6.848-5.568 12.352-12.352 12.352l-55.68 0 0 86.656-37.12 0 0-86.656L606.784 704.576 551.04 704.576l0 86.656L550.08 791.232 513.92 791.232 512.96 791.232l0-86.656-55.68 0L303.488 704.576l0 86.656-37.12 0 0-86.656-55.68 0c-6.848 0-12.352-5.568-12.352-12.352l0-12.352c0-6.848 5.568-12.352 12.352-12.352l179.52 0L390.208 587.2 210.688 587.2c-6.848 0-12.352-5.568-12.352-12.352L198.336 562.432c0-6.848 5.568-12.352 12.352-12.352l55.68 0L266.368 469.568l-55.68 0c-6.848 0-12.352-5.568-12.352-12.352L198.336 444.864c0-6.848 5.568-12.352 12.352-12.352l181.184 0C390.784 430.656 390.144 428.544 390.144 426.24L390.144 382.976c0-6.848 5.568-12.352 12.352-12.352l12.352 0c6.848 0 12.352 5.504 12.352 12.352L427.2 426.24c0 2.24-0.64 4.352-1.728 6.208l31.68 0 149.568 0 31.68 0C637.376 430.656 636.736 428.544 636.736 426.24L636.736 382.976c0-6.848 5.568-12.352 12.352-12.352l12.352 0c6.848 0 12.352 5.504 12.352 12.352L673.792 426.24c0 2.24-0.64 4.352-1.728 6.208l181.184 0c6.848 0 12.352 5.504 12.352 12.352L865.6 457.216z" fill="#272636" p-id="8161"></path><path d="M551.04 469.568 551.04 550.08 606.784 550.08 760.512 550.08 760.512 469.568 606.784 469.568Z" fill="#272636" p-id="8162"></path></svg>