<?xml version="1.0" standalone="no"?><!DOCTYPE svg PUBLIC "-//W3C//DTD SVG 1.1//EN" "http://www.w3.org/Graphics/SVG/1.1/DTD/svg11.dtd"><svg t="1764842300397" class="icon" viewBox="0 0 1024 1024" version="1.1" xmlns="http://www.w3.org/2000/svg" p-id="6859" xmlns:xlink="http://www.w3.org/1999/xlink" width="256" height="256"><path d="M149.796571 150.113524c199.728762-199.92381 523.629714-200.167619 723.69981-0.609524a511.75619 511.75619 0 0 1 0 724.992c-200.070095 199.582476-523.971048 199.289905-723.69981-0.609524-199.728762-199.92381-199.728762-523.849143 0-723.772952z m655.067429 68.681143c-161.889524-161.767619-424.228571-161.694476-585.99619 0.170666-161.792 161.840762-161.792 424.228571 0 586.069334 161.792 161.865143 424.106667 161.938286 585.99619 0.170666a414.281143 414.281143 0 0 0 0-586.410666zM568.003048 609.52381c1.731048 0 3.413333 0.707048 4.632381 1.950476l1.414095 2.194285 0.487619 2.535619v125.074286h53.51619c1.487238-0.048762 2.925714 0.512 4.022857 1.536 1.633524 1.706667 2.169905 4.120381 1.633524 6.290286l-1.633524 2.974476-115.078095 147.431619a6.241524 6.241524 0 0 1-8.655238 1.389714l-1.389714-1.389714-115.346286-147.431619a6.534095 6.534095 0 0 1-1.511619-4.120381c0-1.77981 0.682667-3.462095 1.901714-4.729905l2.121143-1.462857 2.511238-0.487619h50.249143v-125.074286c0-2.681905 1.560381-5.022476 3.82781-6.095238l2.462476-0.585142h114.834286z m195.462095-219.428572c2.779429 0 5.168762 1.657905 6.168381 3.998476l0.536381 2.56v50.468572h125.464381c2.681905 0 4.973714 1.584762 5.948952 3.85219l0.512 2.438095v115.321905l-0.487619 2.511238a6.656 6.656 0 0 1-3.437714 3.462096l-2.535619 0.585142H770.194286v52.736a5.729524 5.729524 0 0 1-1.560381 4.047238c-1.706667 1.633524-4.120381 2.169905-6.290286 1.633524l-2.998857-1.633524-147.919238-115.565714-1.657905-2.925714a6.436571 6.436571 0 0 1 0.365714-4.266667l1.292191-1.877333 147.919238-115.809524a6.022095 6.022095 0 0 1 4.144762-1.536z m-498.907429 1.633524l148.041143 115.248762 1.657905 2.925714a6.534095 6.534095 0 0 1-0.365714 4.315429l-1.292191 1.901714-148.041143 116.248381a5.997714 5.997714 0 0 1-4.144762 1.536 6.509714 6.509714 0 0 1-4.632381-1.950476l-1.389714-2.145524-0.414476-2.511238v-50.761143H128.609524a6.704762 6.704762 0 0 1-6.168381-4.047238L121.904762 569.929143v-117.028572c0-1.706667 0.731429-3.364571 1.974857-4.583619l2.194286-1.340952 2.535619-0.414476h126.659047v-50.761143a7.509333 7.509333 0 0 1 0-4.071619l2.974477-1.633524h3.315809l2.998857 1.633524zM515.242667 122.489905l1.877333 1.29219 115.273143 148.041143a6.509714 6.509714 0 0 1-0.414476 8.777143l-2.145524 1.389714-2.511238 0.414476h-50.541715v125.366858a6.704762 6.704762 0 0 1-4.022857 6.168381l-2.56 0.53638h-116.516571a6.265905 6.265905 0 0 1-4.559238-1.974857l-1.340953-2.194285-0.414476-2.535619v-125.366858h-51.321905a6.241524 6.241524 0 0 1-4.022857-1.536 6.241524 6.241524 0 0 1-1.926095-4.510476l0.487619-2.462476 1.438476-2.072381 116.004572-148.041143 2.925714-1.657905a6.460952 6.460952 0 0 1 4.291048 0.365715z" p-id="6860"></path></svg>