<?xml version="1.0" standalone="no"?><!DOCTYPE svg PUBLIC "-//W3C//DTD SVG 1.1//EN" "http://www.w3.org/Graphics/SVG/1.1/DTD/svg11.dtd"><svg t="1764842312672" class="icon" viewBox="0 0 1024 1024" version="1.1" xmlns="http://www.w3.org/2000/svg" p-id="7993" xmlns:xlink="http://www.w3.org/1999/xlink" width="256" height="256"><path d="M160 224a64 64 0 0 1 64-64h576a64 64 0 0 1 64 64v576a64 64 0 0 1-64 64H224a64 64 0 0 1-64-64V224z m256 480H224v96h192v-96z m384 0H480v96h320v-96z m0-160h-192v96h192v-96z m-256 0H224v96h320v-96z m256-160H480v96h320v-96zM224 480h192v-96H224v96z m320-256H224v96h320V224z m256 0h-192v96h192V224z" fill="#686C78" p-id="7994"></path></svg>