<?xml version="1.0" standalone="no"?><!DOCTYPE svg PUBLIC "-//W3C//DTD SVG 1.1//EN" "http://www.w3.org/Graphics/SVG/1.1/DTD/svg11.dtd"><svg t="1764912780443" class="icon" viewBox="0 0 1024 1024" version="1.1" xmlns="http://www.w3.org/2000/svg" p-id="12264" xmlns:xlink="http://www.w3.org/1999/xlink" width="256" height="256"><path d="M868.173913 489.73913h-90.37913a199.234783 199.234783 0 0 0-231.958261-175.415652A200.347826 200.347826 0 0 0 378.434783 179.422609V89.043478a22.26087 22.26087 0 0 0-44.52174 0v90.379131A200.347826 200.347826 0 0 0 207.248696 512 200.347826 200.347826 0 0 0 333.913043 844.577391V934.956522a22.26087 22.26087 0 0 0 44.52174 0v-89.043479-1.335652a200.347826 200.347826 0 0 0 167.624347-135.123478A199.234783 199.234783 0 0 0 777.794783 534.26087H868.173913a22.26087 22.26087 0 0 0 0-44.52174zM356.173913 222.608696a155.826087 155.826087 0 0 1 146.69913 103.958261 207.471304 207.471304 0 0 0-61.217391 39.846956 22.26087 22.26087 0 0 0-6.455652-6.455652L378.434783 321.892174V267.130435a22.26087 22.26087 0 0 0-44.52174 0v54.761739l-56.765217 38.066087A22.26087 22.26087 0 0 0 289.391304 400.695652a20.925217 20.925217 0 0 0 12.243479-3.784348L356.173913 360.626087l54.53913 36.285217a13.57913 13.57913 0 0 0 3.116522 1.558261 199.012174 199.012174 0 0 0-24.709565 49.641739A200.347826 200.347826 0 0 0 356.173913 445.217391a198.344348 198.344348 0 0 0-115.756522 37.175652A155.826087 155.826087 0 0 1 356.173913 222.608696z m155.826087 155.826087a155.826087 155.826087 0 0 1-40.069565 103.95826 198.789565 198.789565 0 0 0-39.846957-22.260869 155.826087 155.826087 0 0 1 79.471305-89.043478c0.445217 2.893913 0.445217 5.12 0.445217 7.346087z m0 274.031304a155.826087 155.826087 0 0 1-79.471304-89.043478 198.789565 198.789565 0 0 0 39.846956-22.26087A155.826087 155.826087 0 0 1 512 645.565217v6.90087zM422.956522 512v-6.90087l12.688695 6.90087-12.688695 6.90087V512z m-43.408696 20.257391A162.949565 162.949565 0 0 1 356.173913 534.26087a155.826087 155.826087 0 0 1-79.916522-22.26087A155.826087 155.826087 0 0 1 356.173913 489.73913a162.949565 162.949565 0 0 1 23.373913 2.003479 184.987826 184.987826 0 0 0 0 40.514782zM356.173913 801.391304a155.826087 155.826087 0 0 1-115.756522-259.784347A198.344348 198.344348 0 0 0 356.173913 578.782609a200.347826 200.347826 0 0 0 32.946087-2.893913 197.231304 197.231304 0 0 0 24.932174 49.864347 14.914783 14.914783 0 0 0-3.339131 1.335653L356.173913 663.373913l-54.53913-36.285217a22.26087 22.26087 0 0 0-24.486957 36.953043L333.913043 702.107826V756.869565a22.26087 22.26087 0 0 0 44.52174 0v-54.761739l56.765217-38.066087a22.26087 22.26087 0 0 0 6.455652-6.455652 207.471304 207.471304 0 0 0 61.217391 39.846956A155.826087 155.826087 0 0 1 356.173913 801.391304z m222.608696-133.565217a162.949565 162.949565 0 0 1-22.26087-2.003478 202.128696 202.128696 0 0 0 0-20.257392 199.012174 199.012174 0 0 0-51.422609-133.565217A199.012174 199.012174 0 0 0 556.521739 378.434783a202.128696 202.128696 0 0 0-1.113043-20.257392A162.949565 162.949565 0 0 1 578.782609 356.173913a155.826087 155.826087 0 0 1 0 311.652174z" p-id="12265"></path><path d="M597.25913 432.973913a22.26087 22.26087 0 1 0-36.953043 24.486957L596.591304 512l-36.285217 54.53913a22.26087 22.26087 0 0 0 6.233043 30.72 20.925217 20.925217 0 0 0 12.243479 3.784348 22.26087 22.26087 0 0 0 18.476521-10.017391L635.325217 534.26087H690.086957a22.26087 22.26087 0 0 0 0-44.52174h-54.76174z" p-id="12266"></path></svg>