<?xml version="1.0" standalone="no"?><!DOCTYPE svg PUBLIC "-//W3C//DTD SVG 1.1//EN" "http://www.w3.org/Graphics/SVG/1.1/DTD/svg11.dtd"><svg t="1764912786285" class="icon" viewBox="0 0 1024 1024" version="1.1" xmlns="http://www.w3.org/2000/svg" p-id="12434" xmlns:xlink="http://www.w3.org/1999/xlink" width="256" height="256"><path d="M396.07 834c-102.72 0-186-83.27-186-186s83.27-186 186-186 186 83.27 186 186a186 186 0 0 1-186 186m0 30c119.29 0 216-96.71 216-216s-96.71-216-216-216-216 96.71-216 216 96.7 216 216 216z" fill="#29ABE2" p-id="12435"></path><path d="M396 567c-102.72 0-186-83.27-186-186s83.27-186 186-186 186 83.27 186 186a186 186 0 0 1-186 186m0 30c119.29 0 216-96.71 216-216s-96.71-216-216-216-216 96.71-216 216 96.71 216 216 216z" fill="#A67C52" p-id="12436"></path><path d="M466.53 421.25c51.33-89 165.07-119.51 254.05-68.18s119.51 165.08 68.18 254.06-165.07 119.5-254 68.17a185.92 185.92 0 0 1-68.13-254m-26-15c-59.64 103.31-24.25 235.41 79.06 295.06s235.36 24.25 295-79.06 24.25-235.41-79.07-295.06-235.42-24.3-295.07 79.01z" fill="#F15A24" p-id="12437"></path><path d="M461.2 266.26a12.28 12.28 0 0 0-16.77-4.49l-47.29 27.3a2.27 2.27 0 0 1-2.28 0l-47.29-27.3a12.28 12.28 0 0 0-16.77 4.49 12.27 12.27 0 0 0 4.5 16.74l48.15 27.81 0.27 0.47v56.54a12.27 12.27 0 0 0 12.28 12.3 12.27 12.27 0 0 0 12.28-12.26v-56.55l0.27-0.47L456.7 283a12.27 12.27 0 0 0 4.5-16.74z" fill="#A67C52" p-id="12438"></path><path d="M396.07 669l40.63 70.38h-81.27L396.07 669m0-30a9.88 9.88 0 0 0-8.66 5l-58 100.38a10 10 0 0 0 8.66 15H454a10 10 0 0 0 8.66-15L404.73 644a9.9 9.9 0 0 0-8.66-5z" fill="#29ABE2" p-id="12439"></path><path d="M765.2 471.26a12.28 12.28 0 0 0-16.77-4.49l-47.29 27.3a2.27 2.27 0 0 1-2.28 0l-47.29-27.3a12.28 12.28 0 0 0-16.77 4.49 12.27 12.27 0 0 0 4.5 16.74l48.15 27.81 0.27 0.47v56.54a12.27 12.27 0 0 0 12.28 12.3 12.27 12.27 0 0 0 12.28-12.26v-56.55l0.27-0.47L760.7 488a12.27 12.27 0 0 0 4.5-16.74z" fill="#FF0000" p-id="12440"></path></svg>