<?xml version="1.0" standalone="no"?><!DOCTYPE svg PUBLIC "-//W3C//DTD SVG 1.1//EN" "http://www.w3.org/Graphics/SVG/1.1/DTD/svg11.dtd"><svg t="1764912853661" class="icon" viewBox="0 0 1024 1024" version="1.1" xmlns="http://www.w3.org/2000/svg" p-id="15566" xmlns:xlink="http://www.w3.org/1999/xlink" width="256" height="256"><path d="M597.333333 469.333333c72.533333 0 128-55.466667 128-128 0-55.466667-34.133333-102.4-85.333333-119.466666V42.666667c0-25.6-17.066667-42.666667-42.666667-42.666667s-42.666667 17.066667-42.666666 42.666667v179.2c-51.2 17.066667-85.333333 64-85.333334 119.466666 0 72.533333 55.466667 128 128 128z m0-170.666666c25.6 0 42.666667 17.066667 42.666667 42.666666s-17.066667 42.666667-42.666667 42.666667-42.666667-17.066667-42.666666-42.666667 17.066667-42.666667 42.666666-42.666666zM597.333333 554.666667c-21.333333 0-38.4 4.266667-55.466666 12.8l-170.666667-170.666667c-17.066667-17.066667-42.666667-17.066667-59.733333 0s-17.066667 42.666667 0 59.733333l170.666666 170.666667c-8.533333 17.066667-12.8 34.133333-12.8 55.466667 0 55.466667 34.133333 102.4 85.333334 119.466666V981.333333c0 25.6 17.066667 42.666667 42.666666 42.666667s42.666667-17.066667 42.666667-42.666667v-179.2c51.2-17.066667 85.333333-64 85.333333-119.466666 0-72.533333-55.466667-128-128-128z m0 170.666666c-25.6 0-42.666667-17.066667-42.666666-42.666666s17.066667-42.666667 42.666666-42.666667 42.666667 17.066667 42.666667 42.666667-17.066667 42.666667-42.666667 42.666666z" p-id="15567"></path></svg>