<?xml version="1.0" standalone="no"?><!DOCTYPE svg PUBLIC "-//W3C//DTD SVG 1.1//EN" "http://www.w3.org/Graphics/SVG/1.1/DTD/svg11.dtd"><svg t="1764912824997" class="icon" viewBox="0 0 1024 1024" version="1.1" xmlns="http://www.w3.org/2000/svg" p-id="13634" xmlns:xlink="http://www.w3.org/1999/xlink" width="256" height="256"><path d="M1013.333333 522.666667H853.333333V618.666667a21.333333 21.333333 0 0 1-21.333333 21.333333H192a21.333333 21.333333 0 0 1-21.333333-21.333333v-96H10.666667A10.666667 10.666667 0 0 1 0 512a10.666667 10.666667 0 0 1 10.666667-10.666667H170.666667V405.333333a21.333333 21.333333 0 0 1 21.333333-21.333333h640a21.333333 21.333333 0 0 1 21.333333 21.333333v96h160a10.666667 10.666667 0 0 1 10.666667 10.666667 10.666667 10.666667 0 0 1-10.666667 10.666667zM832 618.666667V405.333333H192v213.333334z" fill="#699799" p-id="13635"></path></svg>