<?xml version="1.0" standalone="no"?><!DOCTYPE svg PUBLIC "-//W3C//DTD SVG 1.1//EN" "http://www.w3.org/Graphics/SVG/1.1/DTD/svg11.dtd"><svg t="1764842226452" class="icon" viewBox="0 0 1024 1024" version="1.1" xmlns="http://www.w3.org/2000/svg" p-id="5040" xmlns:xlink="http://www.w3.org/1999/xlink" width="256" height="256"><path d="M664.545 86c48.3 0 87.455 39.148 87.455 87.439V900.56C752 948.852 712.845 988 664.545 988h-306.09c-48.3 0-87.455-39.148-87.455-87.439V173.44C271 125.148 310.155 86 358.455 86z m0 59.827h-306.09c-15.253 0-27.618 12.362-27.618 27.612V900.56c0 15.25 12.365 27.612 27.618 27.612h306.09c15.253 0 27.618-12.362 27.618-27.612V173.44c0-15.25-12.365-27.612-27.618-27.612zM512.651 670.459c26.692 0 48.33 21.634 48.33 48.322 0 26.687-21.638 48.321-48.33 48.321-26.692 0-48.33-21.634-48.33-48.321 0-26.688 21.638-48.322 48.33-48.322z m98.714-271.52c16.524 0 29.919 13.392 29.919 29.913 0 16.285-13.015 29.53-29.212 29.905l-0.707 0.008H413.706c-16.523 0-29.918-13.392-29.918-29.913 0-16.285 13.015-29.53 29.212-29.905l0.706-0.008h197.66z m0-116.013c16.524 0 29.919 13.393 29.919 29.913 0 16.285-13.015 29.53-29.212 29.905l-0.707 0.008H413.706c-16.523 0-29.918-13.392-29.918-29.913 0-16.284 13.015-29.53 29.212-29.905l0.706-0.008h197.66z" fill="#333333" p-id="5041"></path></svg>