<?xml version="1.0" standalone="no"?><!DOCTYPE svg PUBLIC "-//W3C//DTD SVG 1.1//EN" "http://www.w3.org/Graphics/SVG/1.1/DTD/svg11.dtd"><svg t="1764842253273" class="icon" viewBox="0 0 1024 1024" version="1.1" xmlns="http://www.w3.org/2000/svg" p-id="5371" xmlns:xlink="http://www.w3.org/1999/xlink" width="256" height="256"><path d="M512 0C229.232 0 0.002 229.228 0.002 512c0 282.768 229.23 512 511.998 512C794.776 1024 1024.006 794.77 1024.006 512 1024.006 229.228 794.776 0 512 0z m0 993.808C245.906 993.808 30.194 778.094 30.194 512c0-266.096 215.712-481.81 481.806-481.81 266.104 0 481.814 215.712 481.814 481.81 0 266.094-215.71 481.808-481.814 481.808z" fill="#666666" p-id="5372"></path><path d="M799.08 397.236a9.808 9.808 0 0 1-9.808 9.808H234.738a9.81 9.81 0 0 1-9.81-9.808v-103.322a9.812 9.812 0 0 1 9.81-9.81h554.534a9.808 9.808 0 0 1 9.808 9.81v103.322zM799.08 539.956a9.81 9.81 0 0 1-9.808 9.808H234.738a9.81 9.81 0 0 1-9.81-9.808v-103.32a9.81 9.81 0 0 1 9.81-9.808h554.534a9.808 9.808 0 0 1 9.808 9.808v103.32zM799.08 726.226c0 7.542-4.39 13.666-9.808 13.666H234.738c-5.418 0-9.81-6.124-9.81-13.666v-143.992c0-7.548 4.392-13.668 9.81-13.668h554.534c5.418 0 9.808 6.12 9.808 13.668v143.992z" fill="#666666" p-id="5373"></path><path d="M286.4 345.576m-22.234 0a22.234 22.234 0 1 0 44.468 0 22.234 22.234 0 1 0-44.468 0Z" fill="#FFFFFF" p-id="5374"></path><path d="M286.4 488.296m-22.234 0a22.234 22.234 0 1 0 44.468 0 22.234 22.234 0 1 0-44.468 0Z" fill="#FFFFFF" p-id="5375"></path></svg>