<?xml version="1.0" standalone="no"?><!DOCTYPE svg PUBLIC "-//W3C//DTD SVG 1.1//EN" "http://www.w3.org/Graphics/SVG/1.1/DTD/svg11.dtd"><svg t="1764842380910" class="icon" viewBox="0 0 1478 1024" version="1.1" xmlns="http://www.w3.org/2000/svg" p-id="11116" xmlns:xlink="http://www.w3.org/1999/xlink" width="369.5" height="256"><path d="M780.547955 1024L0 642.070645V273.356195l780.547955 352.087246z" fill="#33A9DD" p-id="11117"></path><path d="M780.547955 1024l697.53602-381.929355V276.706453l-697.53602 348.736988z" fill="#257AAE" p-id="11118"></path><path d="M0 273.356195l780.547955 352.087246L1478.083975 276.706453 657.02272 0z" fill="#2DB9EA" p-id="11119"></path><path d="M695.240473 371.568373L520.220539 309.030233c-2.295547 2.41963-4.777219 4.901303-7.631142 7.445017s-5.83193 4.591094-8.93402 6.824599l175.019934 62.600181a76.931839 76.931839 0 0 1 7.507058-7.445016 103.175523 103.175523 0 0 1 9.058104-7.010724m125.944865-158.702939a148.900333 148.900333 0 0 1-26.243684 0.744502l-34.185035 135.313178a155.104514 155.104514 0 0 1 26.243684-0.744502l34.185035-135.313178m-90.456953-32.385822L521.151166 253.25465A37.225083 37.225083 0 0 1 530.953772 266.779764l209.391093-72.712996a38.217752 38.217752 0 0 1-9.61648-13.40103" fill="#086E9B" p-id="11120"></path><path d="M703.864284 367.907907l-171.669676-61.359346c-2.233505 2.41963-4.715177 4.839261-7.507059 7.320933s-5.707846 4.529052-8.747894 6.700515l171.669676 61.359346a68.245986 68.245986 0 0 1 7.258891-7.134808 91.015329 91.015329 0 0 1 8.871978-6.88664m123.525235-155.66289a149.768919 149.768919 0 0 1-25.74735 0.744501l-33.440533 132.707422a149.768919 149.768919 0 0 1 26.057559-0.744501l33.564616-132.707422m-88.719782-31.765405L533.559527 251.827689a37.225083 37.225083 0 0 1 9.492397 13.152862l205.358376-71.410118a36.046289 36.046289 0 0 1-9.430355-13.090821" fill="#FFFFFF" p-id="11121"></path><path d="M880.497304 117.321054c-39.706756-14.145532-97.777885-3.722508-129.915541 23.69997-18.612542 15.696577-24.072221 33.750742-17.86804 48.764859a39.582672 39.582672 0 0 0 9.306271 13.276946 65.764314 65.764314 0 0 0 22.707301 13.276947 114.715298 114.715298 0 0 0 31.020903 6.20418 144.185156 144.185156 0 0 0 25.809391-0.682459 139.904271 139.904271 0 0 0 73.271372-28.973524c32.075613-27.608603 25.561224-61.359346-14.269615-75.442835M504.648046 248.167222c-39.892881-14.269615-97.715844-3.660467-129.853499 23.762012s-25.623266 60.800969 14.08349 75.070584c36.41854 13.090821 88.099364 5.335595 121.105604-16.999454a87.851197 87.851197 0 0 0 8.747895-6.700515 65.330021 65.330021 0 0 0 7.5691-7.320934c12.408361-13.897364 15.696577-28.787398 10.485065-41.630051A36.790791 36.790791 0 0 0 527.355347 261.133959 64.95777 64.95777 0 0 0 504.648046 248.167222M818.951833 360.338806a117.134929 117.134929 0 0 0-31.020903-6.20418 149.768919 149.768919 0 0 0-25.747349 0.744502 147.349288 147.349288 0 0 0-64.213269 22.210966c-3.226174 2.233505-6.204181 4.404968-8.93402 6.700515a101.872645 101.872645 0 0 0-7.258891 7.072766c-23.141593 25.809391-14.76595 55.093123 21.714632 68.245986 39.706756 14.145532 97.715844 3.722508 129.853499-23.69997s25.43714-60.925053-14.269616-75.070585" fill="#086E9B" p-id="11122"></path><path d="M886.267192 108.076825c-39.706756-14.145532-97.777885-3.722508-129.915541 23.69997-18.612542 15.696577-24.072221 33.750742-17.86804 48.702817a39.768797 39.768797 0 0 0 9.306271 13.338988 65.764314 65.764314 0 0 0 22.707301 13.276947 117.134929 117.134929 0 0 0 31.020902 6.20418 150.203211 150.203211 0 0 0 25.809392-0.68246 139.904271 139.904271 0 0 0 73.271372-28.973523c32.075613-27.608603 25.561224-61.359346-14.269615-75.442835M510.417934 238.798909c-39.892881-14.269615-97.715844-3.722508-129.853499 23.69997s-25.623266 60.863011 14.08349 75.132627c36.41854 13.090821 88.099364 5.273553 121.105604-17.061497a78.979218 78.979218 0 0 0 8.747895-6.638473 65.764314 65.764314 0 0 0 7.5691-7.382975c12.408361-13.835323 15.696577-28.725356 10.485065-41.56801a36.790791 36.790791 0 0 0-9.430354-13.090821 64.95777 64.95777 0 0 0-22.707301-13.090821M825.156013 351.094577a117.134929 117.134929 0 0 0-31.020902-6.20418 149.768919 149.768919 0 0 0-25.74735 0.744502 147.349288 147.349288 0 0 0-64.213268 22.210966c-3.226174 2.233505-6.204181 4.404968-8.93402 6.700515a101.872645 101.872645 0 0 0-7.382975 7.134808c-23.141593 25.809391-14.76595 55.031081 21.714632 68.245986 39.706756 14.145532 97.715844 3.722508 129.853499-23.69997s25.43714-60.987095-14.269616-75.070585" fill="#FFFFFF" p-id="11123"></path></svg>