<?xml version="1.0" standalone="no"?><!DOCTYPE svg PUBLIC "-//W3C//DTD SVG 1.1//EN" "http://www.w3.org/Graphics/SVG/1.1/DTD/svg11.dtd"><svg t="1764912932054" class="icon" viewBox="0 0 1024 1024" version="1.1" xmlns="http://www.w3.org/2000/svg" p-id="16932" xmlns:xlink="http://www.w3.org/1999/xlink" width="256" height="256"><path d="M332.8 187.733333c-12.8-17.066667-38.4-21.333333-59.733333-8.533333-17.066667 12.8-21.333333 38.4-8.533334 59.733333L597.333333 695.466667V981.333333c0 25.6 17.066667 42.666667 42.666667 42.666667s42.666667-17.066667 42.666667-42.666667v-298.666666c0-8.533333-4.266667-17.066667-8.533334-25.6l-341.333333-469.333334zM725.333333 256h-42.666666V42.666667c0-25.6-17.066667-42.666667-42.666667-42.666667s-42.666667 17.066667-42.666667 42.666667v213.333333h-42.666666c-25.6 0-42.666667 17.066667-42.666667 42.666667s17.066667 42.666667 42.666667 42.666666h170.666666c25.6 0 42.666667-17.066667 42.666667-42.666666s-17.066667-42.666667-42.666667-42.666667z" p-id="16933"></path></svg>